<?xml version="1.0" encoding="UTF-8" standalone="no"?>
<svg
   width="1254"
   height="1254"
   viewBox="0 0 1254 1254"
   version="1.1"
   id="svg1"
   sodipodi:docname="villa-velymar-mark.svg"
   inkscape:version="1.4.3 (0d15f75, 2025-12-25)"
   xmlns:inkscape="http://www.inkscape.org/namespaces/inkscape"
   xmlns:sodipodi="http://sodipodi.sourceforge.net/DTD/sodipodi-0.dtd"
   xmlns="http://www.w3.org/2000/svg"
   xmlns:svg="http://www.w3.org/2000/svg">
  <defs
     id="defs1">
    <linearGradient
       id="swatch23"
       inkscape:swatch="solid">
      <stop
         style="stop-color:#ffffff;stop-opacity:1;"
         offset="0"
         id="stop23" />
    </linearGradient>
    <rect
       x="186.26527"
       y="996.01727"
       width="973.71006"
       height="190.72671"
       id="rect1" />
  </defs>
  <sodipodi:namedview
     id="namedview1"
     pagecolor="#ffffff"
     bordercolor="#000000"
     borderopacity="0.25"
     inkscape:showpageshadow="2"
     inkscape:pageopacity="0.0"
     inkscape:pagecheckerboard="0"
     inkscape:deskcolor="#d1d1d1"
     inkscape:zoom="0.44503534"
     inkscape:cx="479.73718"
     inkscape:cy="511.19536"
     inkscape:window-width="1920"
     inkscape:window-height="1009"
     inkscape:window-x="-8"
     inkscape:window-y="-8"
     inkscape:window-maximized="1"
     inkscape:current-layer="svg1"
     showguides="true" />
  <path
     d="m 892.02245,1153.7723 c -67.69983,8.8286 -131.70548,33.1454 -196.57467,53.417 -186.43433,44.0696 -304.75152,-60.0255 -356.82576,-47.0069 58.69894,7.3373 47.02797,24.9349 183.75458,70.5103 140.21182,34.9531 242.98207,-32.1629 369.64585,-76.9204 z M 1071.5037,44.834716 C 973.06589,-16.737377 886.41946,28.100019 800.14515,85.431718 764.2898,112.68958 733.611,145.55579 701.85782,177.30901 552.27478,334.97 486.31946,531.581 466.57641,600.90561 449.78074,660.40875 438.97798,713.55969 432.636,754.21288 370.28647,594.1071 304.78783,433.57249 278.79496,262.77625 272.5986,189.59236 304.45916,125.55026 340.75873,64.064909 l -4.27337,2.136676 C 295.66824,118.21332 261.4386,174.18603 227.51462,230.72604 c -38.20771,65.54248 -253.622883,470.62523 66.2371,773.47856 l 27.77687,19.2301 -57.6904,-64.10043 C 111.23932,771.54094 111.66378,474.80382 240.3347,254.22952 c -13.57513,90.14572 36.43747,253.62746 102.13117,419.44845 38.75428,97.83081 83.01514,216.04126 126.49373,324.11652 l 32.05019,66.23721 C 463.05166,924.35113 468.09908,777.95263 494.59976,636.69544 500.82329,610.68733 570.8453,329.69666 720.57519,201.32529 522.95515,531.73568 581.48913,908.05102 646.30411,1130.2688 l 4.27336,-14.9568 c -63.74871,-294.27078 -73.45668,-616.49958 81.1939,-886.72266 0.13498,62.48638 59.74803,533.33324 376.42623,828.04626 l 14.1963,6.3073 c -75.9953,-16.4914 -144.76663,-12.0917 -221.82474,3.2254 -194.00359,39.6414 -201.25589,99.9511 -307.77277,84.1429 -47.32451,-9.3626 -75.59419,-24.6985 -194.34728,-56.3661 -80.11747,-19.4173 -159.70507,-5.1187 -237.17162,19.2303 l -36.32357,19.2299 38.46027,-12.8199 c 83.96146,-22.3076 150.32711,-14.4164 235.03492,2.1365 44.11542,8.5517 90.0561,25.7623 134.61091,42.7338 36.61087,13.2025 78.42257,22.1073 124.31856,14.4146 89.02982,-16.4769 110.16337,-57.8923 298.7443,-95.6086 84.77442,-14.6657 127.92562,-5.5242 196.18462,0.2466 13.287,1.6219 25.8452,2.3545 38.8503,-0.2466 C 969.58234,917.08019 727.851,247.11353 787.32507,128.16535 866.2781,49.212132 937.43121,6.0827964 1071.5037,44.834716 Z"
     fill="#183c5f"
     fill-rule="evenodd"
     id="path8"
     sodipodi:nodetypes="cccccccccccccccccccccccccccccccccccccccccc"
     inkscape:export-filename="circled08.png"
     inkscape:export-xdpi="96"
     inkscape:export-ydpi="96"
     style="fill:#0b437b;fill-opacity:1;stroke-width:2.13667" />
  <text
     xml:space="preserve"
     style="font-style:normal;font-variant:normal;font-weight:normal;font-stretch:normal;font-size:74.6667px;font-family:'David Libre';-inkscape-font-specification:'David Libre';writing-mode:lr-tb;direction:ltr;fill:#183c5f;fill-opacity:1;stroke:#183c5f;stroke-width:4;stroke-linecap:square;stroke-miterlimit:50;stroke-opacity:1"
     x="-576.84216"
     y="1040.288"
     id="text33"><tspan
       sodipodi:role="line"
       id="tspan33"
       x="-576.84216"
       y="1040.288"> </tspan></text>
</svg>
