<?xml version="1.0" encoding="UTF-8" standalone="no"?>
<svg
   width="1254"
   height="1254"
   viewBox="0 0 1254 1254"
   version="1.1"
   id="svg1"
   sodipodi:docname="villa-velymar-logo-primary.svg"
   inkscape:version="1.4.3 (0d15f75, 2025-12-25)"
   xmlns:inkscape="http://www.inkscape.org/namespaces/inkscape"
   xmlns:sodipodi="http://sodipodi.sourceforge.net/DTD/sodipodi-0.dtd"
   xmlns="http://www.w3.org/2000/svg"
   xmlns:svg="http://www.w3.org/2000/svg">
  <defs
     id="defs1">
    <linearGradient
       id="swatch23"
       inkscape:swatch="solid">
      <stop
         style="stop-color:#ffffff;stop-opacity:1;"
         offset="0"
         id="stop23" />
    </linearGradient>
    <rect
       x="186.26527"
       y="996.01727"
       width="973.71006"
       height="190.72671"
       id="rect1" />
  </defs>
  <sodipodi:namedview
     id="namedview1"
     pagecolor="#ffffff"
     bordercolor="#000000"
     borderopacity="0.25"
     inkscape:showpageshadow="2"
     inkscape:pageopacity="0.0"
     inkscape:pagecheckerboard="0"
     inkscape:deskcolor="#d1d1d1"
     inkscape:zoom="0.44503534"
     inkscape:cx="479.73718"
     inkscape:cy="511.19536"
     inkscape:window-width="1920"
     inkscape:window-height="1009"
     inkscape:window-x="-8"
     inkscape:window-y="-8"
     inkscape:window-maximized="1"
     inkscape:current-layer="svg1"
     showguides="true" />
  <path
     d="m 843.89036,1008.7704 c -58.94403,7.6868 -114.67168,28.8587 -171.15117,46.5085 -162.32231,38.37 -265.33724,-52.2623 -310.67657,-40.9275 51.10724,6.3884 40.94571,21.7101 159.98913,61.3912 122.07787,30.4325 211.55658,-28.0032 321.83861,-66.9722 z M 1000.1588,43.254519 C 914.45226,-10.354299 839.01203,28.684161 763.89579,78.601007 732.6777,102.33354 705.96666,130.94908 678.3202,158.59558 548.08312,295.86587 490.65796,467.04868 473.46833,527.40737 458.84489,579.21481 449.43928,625.4916 443.91752,660.88702 389.63181,521.48813 332.60427,381.71586 309.97313,233.00913 304.57816,169.2903 332.31813,113.53092 363.92296,59.997623 l -3.72068,1.860333 c -35.53813,45.284934 -65.34077,94.018554 -94.87727,143.246094 -33.26622,57.0657 -220.821197,409.75808 57.67049,673.4426 l 24.18441,16.74305 -50.22915,-55.81016 C 164.08789,675.974 164.45744,417.61464 276.48703,225.56777 c -11.81942,78.48695 31.72492,220.82518 88.92229,365.20012 33.7421,85.17811 72.27859,188.1001 110.13397,282.19775 l 27.90508,57.6705 C 470.39945,809.02087 474.79407,681.55644 497.86735,558.5684 503.28598,535.92399 564.25186,291.27456 694.61681,179.50578 522.55547,467.18335 573.5191,794.82888 629.9514,988.30663 l 3.72068,-13.02237 C 578.16814,719.07228 569.71574,438.51814 704.36496,203.2437 c 0.11752,54.40486 52.02067,464.35591 327.74214,720.95298 l 12.3601,5.4915 c -66.16644,-14.35848 -126.04351,-10.5278 -193.13548,2.8083 -168.91263,34.51451 -175.22697,87.02412 -267.96776,73.26052 -41.20391,-8.15175 -65.8174,-21.50426 -169.21186,-49.07612 -69.75568,-16.90607 -139.04999,-4.45679 -206.4976,16.74305 l -31.62576,16.74305 33.4861,-11.16204 c 73.10252,-19.42248 130.88493,-12.55187 204.63726,1.86035 38.40987,7.44562 78.40893,22.43021 117.20134,37.20681 31.87591,11.495 68.27999,19.2481 108.24014,12.5503 77.51536,-14.3458 95.91566,-50.40496 260.10694,-83.24321 73.81031,-12.76907 111.38068,-4.80991 170.81148,0.21461 11.5686,1.41212 22.5027,2.05002 33.8258,-0.21461 C 911.41924,802.69028 700.95163,219.3721 752.73376,115.80779 821.4756,47.065792 883.42629,9.5144818 1000.1588,43.254519 Z"
     fill="#183c5f"
     fill-rule="evenodd"
     id="path8"
     sodipodi:nodetypes="cccccccccccccccccccccccccccccccccccccccccc"
     inkscape:export-filename="circled08.png"
     inkscape:export-xdpi="96"
     inkscape:export-ydpi="96"
     style="fill:#0b437b;fill-opacity:1;stroke-width:1.86033" />
  <text
     x="626.8089"
     y="1235.0386"
     text-anchor="middle"
     fill="#b08d57"
     font-size="88px"
     font-family="'Cormorant Garamond', 'Times New Roman', Georgia, serif"
     letter-spacing="11.6671"
     id="text9"
     style="font-size:124.45px;fill:#0b437b;fill-opacity:1;stroke-width:1.66673"><tspan
       style="font-style:normal;font-variant:normal;font-weight:normal;font-stretch:normal;font-size:124.45px;font-family:Cinzel;-inkscape-font-specification:Cinzel;fill:#0b437b;fill-opacity:1;stroke-width:1.66673"
       id="tspan8">VILLA VELYMAR</tspan></text>
  <text
     xml:space="preserve"
     style="font-style:normal;font-variant:normal;font-weight:normal;font-stretch:normal;font-size:74.6667px;font-family:'David Libre';-inkscape-font-specification:'David Libre';writing-mode:lr-tb;direction:ltr;fill:#183c5f;fill-opacity:1;stroke:#183c5f;stroke-width:4;stroke-linecap:square;stroke-miterlimit:50;stroke-opacity:1"
     x="-576.84216"
     y="1040.288"
     id="text33"><tspan
       sodipodi:role="line"
       id="tspan33"
       x="-576.84216"
       y="1040.288"> </tspan></text>
  <text
     xml:space="preserve"
     style="font-size:120.005px;font-family:'David Libre';-inkscape-font-specification:'David Libre';writing-mode:lr-tb;direction:ltr;fill:#2b5886;fill-opacity:1;stroke:#215181;stroke-width:7.50033;stroke-linecap:square;stroke-miterlimit:50;stroke-dasharray:none;stroke-opacity:1"
     x="779.25031"
     y="1096.5807"
     id="text35"><tspan
       sodipodi:role="line"
       id="tspan35"
       x="779.25031"
       y="1096.5807"
       style="stroke-width:7.50033"> </tspan></text>
</svg>
