<?xml version="1.0" encoding="UTF-8" standalone="no"?>
<svg
   width="1254"
   height="1254"
   viewBox="0 0 1254 1254"
   version="1.1"
   id="svg1"
   sodipodi:docname="villa-velymar-seal.svg"
   inkscape:version="1.4.3 (0d15f75, 2025-12-25)"
   xmlns:inkscape="http://www.inkscape.org/namespaces/inkscape"
   xmlns:sodipodi="http://sodipodi.sourceforge.net/DTD/sodipodi-0.dtd"
   xmlns="http://www.w3.org/2000/svg"
   xmlns:svg="http://www.w3.org/2000/svg">
  <defs
     id="defs1">
    <linearGradient
       id="swatch23"
       inkscape:swatch="solid">
      <stop
         style="stop-color:#ffffff;stop-opacity:1;"
         offset="0"
         id="stop23" />
    </linearGradient>
    <rect
       x="186.26527"
       y="996.01727"
       width="973.71006"
       height="190.72671"
       id="rect1" />
  </defs>
  <sodipodi:namedview
     id="namedview1"
     pagecolor="#ffffff"
     bordercolor="#000000"
     borderopacity="0.25"
     inkscape:showpageshadow="2"
     inkscape:pageopacity="0.0"
     inkscape:pagecheckerboard="0"
     inkscape:deskcolor="#d1d1d1"
     inkscape:zoom="0.44503534"
     inkscape:cx="479.73718"
     inkscape:cy="511.19536"
     inkscape:window-width="1920"
     inkscape:window-height="1009"
     inkscape:window-x="-8"
     inkscape:window-y="-8"
     inkscape:window-maximized="1"
     inkscape:current-layer="svg1"
     showguides="true" />
  <path
     d="m 787.89857,883.34293 c -43.73625,5.7036 -85.08595,21.413 -126.99352,34.50911 -120.44254,28.4704 -196.87923,-38.77841 -230.52084,-30.36801 37.92138,4.74017 30.38156,16.10876 118.71133,45.55202 90.58132,22.58076 156.97418,-20.7783 238.80303,-49.69312 z m 115.9506,-716.4091 c -63.59394,-39.77754 -119.5703,-10.81115 -175.30627,26.22696 -23.1637,17.60945 -42.98319,38.84207 -63.49676,59.35567 -96.63542,101.85404 -139.24467,228.87103 -151.99931,273.65695 -10.85054,38.44093 -17.82947,72.77813 -21.92659,99.0414 -40.27979,-103.43345 -82.59401,-207.14395 -99.38623,-317.48378 -4.00305,-47.27913 16.5799,-88.65238 40.03057,-128.37388 l -2.76073,1.38036 c -26.36916,33.60125 -48.48261,69.76141 -70.39858,106.28806 -24.68341,42.34253 -163.84849,304.03894 42.79129,499.69186 l 17.94474,12.42328 -37.26984,-41.41093 C 283.48771,636.40929 283.76192,444.70762 366.88745,302.20957 c -8.76997,58.23702 23.53977,163.85145 65.98,270.97711 25.03651,63.20183 53.63044,139.56956 81.71899,209.38966 l 20.70546,42.79129 C 510.76973,735.12956 514.03052,640.55144 531.15081,549.29478 535.17141,532.49271 580.40786,350.96376 677.13816,268.03175 549.4693,481.48742 587.28412,724.59916 629.15667,868.15892 l 2.76073,-9.66255 C 590.73369,668.38805 584.46204,460.21794 684.37125,285.6452 c 0.0872,40.3682 38.59914,344.55032 243.1834,534.94438 l 9.17121,4.07467 C 887.63058,814.01031 843.20202,816.85266 793.42003,826.748 668.0875,852.35763 663.40228,891.31956 594.58897,881.107 564.01582,875.05846 545.75271,865.15095 469.03441,844.69273 417.27596,832.14849 365.85984,841.38581 315.81397,857.11601 l -23.46619,12.42328 24.84656,-8.28219 c 54.24179,-14.41141 97.11612,-9.31344 151.84007,1.38037 28.49998,5.52462 58.17913,16.64316 86.96295,27.60728 23.6518,8.52927 50.66349,14.28203 80.31377,9.31226 57.51611,-10.64451 71.16906,-37.40024 192.99837,-61.7661 54.76697,-9.4746 82.64402,-3.56893 126.74146,0.15924 8.5839,1.04779 16.69689,1.52111 25.09861,-0.15924 -143.14483,-107.35862 -299.311,-540.1785 -260.88885,-617.02283 51.00618,-51.0063 96.97336,-78.86923 183.58845,-53.83425 z"
     fill="#183c5f"
     fill-rule="evenodd"
     id="path8"
     sodipodi:nodetypes="cccccccccccccccccccccccccccccccccccccccccc"
     inkscape:export-filename="circled08.png"
     inkscape:export-xdpi="96"
     inkscape:export-ydpi="96"
     style="fill:#0b437b;fill-opacity:1;stroke-width:1.38036" />
  <circle
     style="fill:none;stroke:#0b437b;stroke-width:5.80566;stroke-linecap:round;stroke-linejoin:round;stroke-miterlimit:50;stroke-dasharray:none;stroke-opacity:1"
     id="circle8"
     cx="626.54272"
     cy="632.9928"
     r="608.68768" />
  <g
     id="g10"
     transform="matrix(1.2367117,0,0,1.2367117,-138.38589,-116.41818)">
    <text
       x="618.74634"
       y="944.15808"
       text-anchor="middle"
       fill="#b08d57"
       font-size="88px"
       font-family="'Cormorant Garamond', 'Times New Roman', Georgia, serif"
       letter-spacing="7"
       id="text9"
       style="font-size:74.6667px;fill:#0b437b;fill-opacity:1"><tspan
         style="font-style:normal;font-variant:normal;font-weight:normal;font-stretch:normal;font-size:74.6667px;font-family:Cinzel;-inkscape-font-specification:Cinzel;fill:#0b437b;fill-opacity:1"
         id="tspan8">VILLA VELYMAR</tspan></text>
    <path
       style="fill:none;stroke:#0b437b;stroke-width:2.84109;stroke-linecap:square;stroke-linejoin:miter;stroke-miterlimit:50;stroke-dasharray:none;stroke-opacity:1"
       d="M 996.56652,920.82665 H 956.90849"
       id="path10" />
    <path
       style="fill:none;stroke:#0b437b;stroke-width:2.84109;stroke-linecap:square;stroke-linejoin:miter;stroke-miterlimit:50;stroke-dasharray:none;stroke-opacity:1"
       d="M 280.64904,920.82665 H 240.99101"
       id="path35" />
  </g>
  <text
     xml:space="preserve"
     style="font-style:normal;font-variant:normal;font-weight:normal;font-stretch:normal;font-size:74.6667px;font-family:'David Libre';-inkscape-font-specification:'David Libre';writing-mode:lr-tb;direction:ltr;fill:#183c5f;fill-opacity:1;stroke:#183c5f;stroke-width:4;stroke-linecap:square;stroke-miterlimit:50;stroke-opacity:1"
     x="-576.84216"
     y="1040.288"
     id="text33"><tspan
       sodipodi:role="line"
       id="tspan33"
       x="-576.84216"
       y="1040.288"> </tspan></text>
  <text
     xml:space="preserve"
     style="font-size:89.0432px;font-family:'David Libre';-inkscape-font-specification:'David Libre';writing-mode:lr-tb;direction:ltr;fill:#2b5886;fill-opacity:1;stroke:#215181;stroke-width:5.56522;stroke-linecap:square;stroke-miterlimit:50;stroke-dasharray:none;stroke-opacity:1"
     x="739.93591"
     y="948.49786"
     id="text35"><tspan
       sodipodi:role="line"
       id="tspan35"
       x="739.93591"
       y="948.49786"
       style="stroke-width:5.56522"> </tspan></text>
</svg>
