<?xml version="1.0" encoding="UTF-8" standalone="no"?>
<svg
   width="1800"
   height="300"
   viewBox="0 0 1800 300"
   version="1.1"
   id="svg1"
   sodipodi:docname="villa-velymar-logo-horizontal-lines-dark.svg"
   inkscape:version="1.4.3 (0d15f75, 2025-12-25)"
   xmlns:inkscape="http://www.inkscape.org/namespaces/inkscape"
   xmlns:sodipodi="http://sodipodi.sourceforge.net/DTD/sodipodi-0.dtd"
   xmlns="http://www.w3.org/2000/svg"
   xmlns:svg="http://www.w3.org/2000/svg">
  <defs
     id="defs1">
    <linearGradient
       id="swatch23"
       inkscape:swatch="solid">
      <stop
         style="stop-color:#ffffff;stop-opacity:1;"
         offset="0"
         id="stop23" />
    </linearGradient>
    <rect
       x="186.26527"
       y="996.01727"
       width="973.71008"
       height="190.72672"
       id="rect1" />
  </defs>
  <sodipodi:namedview
     id="namedview1"
     pagecolor="#ffffff"
     bordercolor="#000000"
     borderopacity="0.25"
     inkscape:showpageshadow="2"
     inkscape:pageopacity="0.0"
     inkscape:pagecheckerboard="0"
     inkscape:deskcolor="#d1d1d1"
     inkscape:zoom="0.44503534"
     inkscape:cx="758.36674"
     inkscape:cy="68.533883"
     inkscape:window-width="1920"
     inkscape:window-height="1009"
     inkscape:window-x="-8"
     inkscape:window-y="-8"
     inkscape:window-maximized="1"
     inkscape:current-layer="svg1"
     showguides="true" />
  <path
     d="m 301.17188,273.76033 c -15.72316,2.05044 -30.58836,7.69797 -45.65411,12.40601 -43.29905,10.2351 -70.778,-13.94082 -82.87214,-10.91729 13.63272,1.70409 10.92215,5.79109 42.67666,16.37595 32.56395,8.11777 56.43215,-7.46982 85.84959,-17.86467 z m 41.6842,-257.548774 c -22.86199,-14.3000096 -42.98548,-3.886605 -63.02254,9.42858 -8.32733,6.330589 -15.45243,13.963705 -22.82706,21.338333 -34.74039,36.616491 -50.05839,82.279051 -54.64368,98.379571 -3.90077,13.81949 -6.40969,26.1637 -7.8826,35.60534 -14.48057,-37.18428 -29.69251,-74.46815 -35.7293,-114.135283 -1.4391,-16.996838 5.96046,-31.870502 14.39097,-46.150363 l -0.99248,0.496238 c -9.47971,12.079635 -17.42948,25.079197 -25.30826,38.210517 -8.87368,15.22212 -58.903467,109.301861 15.38345,179.639011 l 6.45112,4.46617 -13.39849,-14.88722 c -35.44082,-43.61466 -35.34223,-112.53133 -5.45864,-163.759322 -3.1528,20.936193 8.46253,58.904532 23.71978,97.416152 9.00061,22.72104 19.28012,50.17521 29.37793,75.2755 l 7.44361,15.38345 c -8.8157,-32.44054 -7.64345,-66.44134 -1.48872,-99.24807 1.4454,-6.04034 17.70789,-71.299918 52.48239,-101.113946 -45.89689,76.737216 -32.30248,164.135796 -17.24932,215.745476 l 0.99248,-3.47369 C 230.2912,196.48414 228.03653,121.64707 263.95385,58.888241 c 0.0313,14.512356 13.87638,123.865699 87.42433,192.312279 l 3.29705,1.46486 c -17.64973,-3.83009 -33.62178,-2.80828 -51.51839,0.74909 -45.05698,9.20666 -46.74132,23.21346 -71.47968,19.54204 -10.99103,-2.17444 -17.55662,-5.73619 -45.1368,-13.0909 -18.60715,-4.50966 -37.09122,-1.18885 -55.08269,4.46616 l -8.43608,4.46616 8.93233,-2.97745 c 19.4999,-5.18089 34.91319,-3.34817 54.58644,0.49625 10.24572,1.98609 20.91537,5.98321 31.26314,9.9248 8.50281,3.06628 18.2135,5.13438 28.87276,3.34776 20.67702,-3.8267 25.58525,-13.44538 69.38284,-22.20489 19.6887,-3.40612 29.71048,-1.28303 45.56351,0.0573 3.08591,0.37669 6.00253,0.54684 9.02294,-0.0573 C 319.18503,218.78902 263.04336,63.190454 276.85611,35.564944 295.19281,17.228202 311.71799,7.2114903 342.85608,16.211556 Z"
     fill="#183c5f"
     fill-rule="evenodd"
     id="path8"
     sodipodi:nodetypes="cccccccccccccccccccccccccccccccccccccccccc"
     inkscape:export-filename="circled08.png"
     inkscape:export-xdpi="96"
     inkscape:export-ydpi="96"
     style="fill:#f8f5ef;fill-opacity:1;stroke-width:0.496239" />
  <text
     x="1042.3088"
     y="208.52672"
     text-anchor="middle"
     fill="#b08d57"
     font-size="88px"
     font-family="'Cormorant Garamond', 'Times New Roman', Georgia, serif"
     letter-spacing="13.6665"
     id="text9"
     style="font-size:145.776px;fill:#f8f5ef;fill-opacity:1;stroke-width:1.95234"><tspan
       style="font-style:normal;font-variant:normal;font-weight:normal;font-stretch:normal;font-size:145.776px;font-family:Cinzel;-inkscape-font-specification:Cinzel;fill:#f8f5ef;fill-opacity:1;stroke-width:1.95234"
       id="tspan8">VILLA VELYMAR</tspan></text>
  <text
     xml:space="preserve"
     style="font-style:normal;font-variant:normal;font-weight:normal;font-stretch:normal;font-size:19.2796px;font-family:'David Libre';-inkscape-font-specification:'David Libre';writing-mode:lr-tb;direction:ltr;fill:#183c5f;fill-opacity:1;stroke:#183c5f;stroke-width:1.03284;stroke-linecap:square;stroke-miterlimit:50;stroke-opacity:1"
     x="1.4034933"
     y="342.18121"
     id="text33"><tspan
       sodipodi:role="line"
       id="tspan33"
       x="1.4034933"
       y="342.18121"
       style="stroke-width:1.03284"> </tspan></text>
  <text
     xml:space="preserve"
     style="font-size:121.673px;font-family:'David Libre';-inkscape-font-specification:'David Libre';writing-mode:lr-tb;direction:ltr;fill:#2b5886;fill-opacity:1;stroke:#215181;stroke-width:7.60458;stroke-linecap:square;stroke-miterlimit:50;stroke-dasharray:none;stroke-opacity:1"
     x="1169.2096"
     y="54.939335"
     id="text35"><tspan
       sodipodi:role="line"
       id="tspan35"
       x="1169.2096"
       y="54.939335"
       style="stroke-width:7.60458"> </tspan></text>
  <path
     style="fill:none;stroke:#f8f5ef;stroke-width:4.1273;stroke-linecap:square;stroke-linejoin:miter;stroke-miterlimit:50;stroke-dasharray:none;stroke-opacity:1"
     d="m 1787.937,162.44289 h -93.4152"
     id="path10" />
  <path
     style="fill:none;stroke:#f8f5ef;stroke-width:4.1273;stroke-linecap:square;stroke-linejoin:miter;stroke-miterlimit:50;stroke-dasharray:none;stroke-opacity:1"
     d="M 101.57871,162.44289 H 8.1634185"
     id="path35" />
</svg>
