<?xml version="1.0" encoding="UTF-8" standalone="no"?>
<svg
   width="1600"
   height="300"
   viewBox="0 0 1600 300"
   version="1.1"
   id="svg1"
   sodipodi:docname="villa-velymar-logo-horizontal-dark.svg"
   inkscape:version="1.4.3 (0d15f75, 2025-12-25)"
   xmlns:inkscape="http://www.inkscape.org/namespaces/inkscape"
   xmlns:sodipodi="http://sodipodi.sourceforge.net/DTD/sodipodi-0.dtd"
   xmlns="http://www.w3.org/2000/svg"
   xmlns:svg="http://www.w3.org/2000/svg">
  <defs
     id="defs1">
    <linearGradient
       id="swatch23"
       inkscape:swatch="solid">
      <stop
         style="stop-color:#ffffff;stop-opacity:1;"
         offset="0"
         id="stop23" />
    </linearGradient>
    <rect
       x="186.26527"
       y="996.01727"
       width="973.71008"
       height="190.72672"
       id="rect1" />
  </defs>
  <sodipodi:namedview
     id="namedview1"
     pagecolor="#ffffff"
     bordercolor="#000000"
     borderopacity="0.25"
     inkscape:showpageshadow="2"
     inkscape:pageopacity="0.0"
     inkscape:pagecheckerboard="0"
     inkscape:deskcolor="#d1d1d1"
     inkscape:zoom="0.44503534"
     inkscape:cx="610.06391"
     inkscape:cy="160.6614"
     inkscape:window-width="1920"
     inkscape:window-height="1009"
     inkscape:window-x="-8"
     inkscape:window-y="-8"
     inkscape:window-maximized="1"
     inkscape:current-layer="svg1"
     showguides="true" />
  <path
     d="m 193.31528,273.76033 c -15.72316,2.05044 -30.58836,7.69797 -45.65411,12.40601 -43.29905,10.2351 -70.778008,-13.94082 -82.872147,-10.91729 13.632721,1.70409 10.922156,5.79109 42.676667,16.37595 32.56395,8.11777 56.43215,-7.46982 85.84959,-17.86467 z M 234.99948,16.211556 C 212.13749,1.9115464 192.014,12.324951 171.97694,25.640136 163.64961,31.970725 156.52451,39.603841 149.14988,46.978469 114.40949,83.59496 99.091485,129.25752 94.506192,145.35804 90.605425,159.17753 88.09651,171.52174 86.623599,180.96338 72.143025,143.7791 56.931086,106.49523 50.894292,66.828097 49.455201,49.831259 56.854756,34.957595 65.285271,20.677734 l -0.992485,0.496238 C 54.813076,33.253607 46.863307,46.253169 38.984522,59.384489 30.110844,74.606609 -19.91894,168.68635 54.367972,239.0235 l 6.451124,4.46617 -13.398493,-14.88722 C 11.979789,184.98779 12.078372,116.07112 41.961965,64.843128 c -3.152795,20.936193 8.462527,58.904532 23.719778,97.416152 9.00061,22.72104 19.280126,50.17521 29.377938,75.2755 l 7.443609,15.38345 c -8.815705,-32.44054 -7.643457,-66.44134 -1.48872,-99.24807 1.4454,-6.04034 17.70789,-71.299918 52.48239,-101.113946 -45.89689,76.737216 -32.30248,164.135796 -17.24932,215.745476 l 0.99248,-3.47369 C 122.4346,196.48414 120.17993,121.64707 156.09725,58.888241 c 0.0313,14.512356 13.87638,123.865699 87.42433,192.312279 l 3.29705,1.46486 c -17.64973,-3.83009 -33.62178,-2.80828 -51.51839,0.74909 -45.05698,9.20666 -46.74132,23.21346 -71.47968,19.54204 -10.99103,-2.17444 -17.55662,-5.73619 -45.136805,-13.0909 -18.607149,-4.50966 -37.091222,-1.18885 -55.082689,4.46616 l -8.436081,4.46616 8.932331,-2.97745 c 19.4999,-5.18089 34.913191,-3.34817 54.586439,0.49625 10.24572,1.98609 20.915367,5.98321 31.263145,9.9248 8.50281,3.06628 18.2135,5.13438 28.87276,3.34776 20.67702,-3.8267 25.58525,-13.44538 69.38284,-22.20489 19.6887,-3.40612 29.71048,-1.28303 45.56351,0.0573 3.08591,0.37669 6.00253,0.54684 9.02294,-0.0573 C 211.32843,218.78902 155.18676,63.190454 168.99951,35.564944 187.33621,17.228202 203.86139,7.2114903 234.99948,16.211556 Z"
     fill="#183c5f"
     fill-rule="evenodd"
     id="path8"
     sodipodi:nodetypes="cccccccccccccccccccccccccccccccccccccccccc"
     inkscape:export-filename="circled08.png"
     inkscape:export-xdpi="96"
     inkscape:export-ydpi="96"
     style="fill:#f8f5ef;fill-opacity:1;stroke-width:0.496239" />
  <text
     x="934.45227"
     y="208.52672"
     text-anchor="middle"
     fill="#b08d57"
     font-size="88px"
     font-family="'Cormorant Garamond', 'Times New Roman', Georgia, serif"
     letter-spacing="13.6665"
     id="text9"
     style="font-size:145.776px;fill:#f8f5ef;fill-opacity:1;stroke-width:1.95234"><tspan
       style="font-style:normal;font-variant:normal;font-weight:normal;font-stretch:normal;font-size:145.776px;font-family:Cinzel;-inkscape-font-specification:Cinzel;fill:#f8f5ef;fill-opacity:1;stroke-width:1.95234"
       id="tspan8">VILLA VELYMAR</tspan></text>
  <text
     xml:space="preserve"
     style="font-style:normal;font-variant:normal;font-weight:normal;font-stretch:normal;font-size:19.2796px;font-family:'David Libre';-inkscape-font-specification:'David Libre';writing-mode:lr-tb;direction:ltr;fill:#183c5f;fill-opacity:1;stroke:#183c5f;stroke-width:1.03284;stroke-linecap:square;stroke-miterlimit:50;stroke-opacity:1"
     x="-106.45311"
     y="342.18121"
     id="text33"><tspan
       sodipodi:role="line"
       id="tspan33"
       x="-106.45311"
       y="342.18121"
       style="stroke-width:1.03284"> </tspan></text>
  <text
     xml:space="preserve"
     style="font-size:121.673px;font-family:'David Libre';-inkscape-font-specification:'David Libre';writing-mode:lr-tb;direction:ltr;fill:#2b5886;fill-opacity:1;stroke:#215181;stroke-width:7.60458;stroke-linecap:square;stroke-miterlimit:50;stroke-dasharray:none;stroke-opacity:1"
     x="1061.353"
     y="54.939335"
     id="text35"><tspan
       sodipodi:role="line"
       id="tspan35"
       x="1061.353"
       y="54.939335"
       style="stroke-width:7.60458"> </tspan></text>
</svg>
